<svg width="200" height="200" viewBox="0 0 200 200" fill="none" xmlns="http://www.w3.org/2000/svg">
  <!-- Background Circle -->
  <circle cx="100" cy="100" r="95" fill="#2f4a70"/>
  
  <!-- Abstract Brain Icon -->
  <path d="M100 50 C85 50 75 60 75 75 C75 85 80 90 85 95 L85 120 C85 130 92 137 100 137 C108 137 115 130 115 120 L115 95 C120 90 125 85 125 75 C125 60 115 50 100 50Z" fill="#e1b12c"/>
  
  <!-- Connection Dots -->
  <circle cx="85" cy="85" r="6" fill="#e1b12c"/>
  <circle cx="115" cy="85" r="6" fill="#e1b12c"/>
  <circle cx="100" cy="105" r="6" fill="#e1b12c"/>
  
  <!-- Subtle connecting lines -->
  <line x1="85" y1="85" x2="100" y2="105" stroke="#e1b12c" stroke-width="3" opacity="0.6"/>
  <line x1="115" y1="85" x2="100" y2="105" stroke="#e1b12c" stroke-width="3" opacity="0.6"/>
  
  <!-- Text CC -->
  <text x="100" y="165" font-family="Arial, sans-serif" font-size="48" font-weight="bold" fill="#e1b12c" text-anchor="middle">CC</text>
</svg>
